# AST/ASF file generated using VICON BodyLanguage
# -----------------------------------------------
:version 1.10
:name VICON
:units
  mass 1.0
  length 0.45
  angle deg
:documentation
   .ast/.asf automatically generated from VICON data using
   VICON BodyBuilder and BodyLanguage model FoxedUp or BRILLIANT.MOD
:root
   order TX TY TZ RX RY RZ
   axis XYZ
   position 0 0 0  
   orientation 0 0 0 
:bonedata
  begin
     id 1 
     name lhipjoint
     direction 0.722297 -0.617336 0.311742 
     length 2.6635 
     axis 0 0 0  XYZ
  end
  begin
     id 2 
     name lfemur
     direction 0.34202 -0.939693 0  
     length 7.39349  
     axis 0 0 20  XYZ
    dof rx ry rz
    limits (-160.0 20.0)
           (-70.0 70.0)
           (-60.0 70.0)
  end
  begin
     id 3 
     name ltibia
     direction 0.34202 -0.939693 0   
     length 7.36294   
     axis 0 0 20   XYZ
    dof rx
    limits (-10.0 170.0)
  end
  begin
     id 4 
     name lfoot
     direction 0.104879 -0.288152 0.951824   
     length 2.16981   
     axis -90 7.62852e-016 20   XYZ
    dof rx rz
    limits (-45.0 90.0)
           (-70.0 20.0)
  end
  begin
     id 5 
     name ltoes
     direction 1.53586e-011 -4.21895e-011 1   
     length 1.08218   
     axis -90 7.62852e-016 20   XYZ
    dof rx
    limits (-90.0 20.0)
  end
  begin
     id 6 
     name rhipjoint
     direction -0.75102 -0.589393 0.297631   
     length 2.78977  
     axis 0 0 0  XYZ 
  end
  begin
     id 7 
     name rfemur
     direction -0.34202 -0.939693 0   
     length 7.46076   
     axis 0 0 -20   XYZ
    dof rx ry rz
    limits (-160.0 20.0)
           (-70.0 70.0)
           (-70.0 60.0)
  end
  begin
     id 8 
     name rtibia
     direction -0.34202 -0.939693 0   
     length 7.31726   
     axis 0 0 -20   XYZ
    dof rx
    limits (-10.0 170.0)
 end
 begin
     id 9 
     name rfoot
     direction -0.107991 -0.296704 0.948844   
     length 2.09388  
     axis -90 -7.62852e-016 -20   XYZ
    dof rx rz
    limits (-45.0 90.0)
           (-20.0 70.0)
  end
  begin
     id 10 
     name rtoes
     direction -1.53559e-011 -4.21911e-011 1   
     length 1.04433   
     axis -90 -7.62852e-016 -20   XYZ
    dof rx
    limits (-90.0 20.0)
  end
  begin
     id 11 
     name lowerback
     direction 0.0165164 0.98272 0.184358   
     length 1.71896   
     axis 0 0 0   XYZ
    dof rx ry rz
    limits (-20.0 45.0)
           (-30.0 30.0)
           (-30.0 30.0)
  end
  begin
     id 12 
     name upperback
     direction -0.00887249 0.992297 0.123566   
     length 1.71504   
     axis 0 0 0   XYZ
    dof rx ry rz
    limits (-20.0 45.0)
           (-30.0 30.0)
           (-30.0 30.0)
  end
  begin
     id 13 
     name thorax
     direction -0.0157026 0.998908 0.0440032   
     length 1.77022   
     axis 0 0 0   XYZ
    dof rx ry rz
    limits (-20.0 45.0)
           (-30.0 30.0)
           (-30.0 30.0)
  end
  begin
     id 14 
     name lowerneck
     direction -0.0238856 0.998137 0.0561411   
     length 1.89341   
     axis 0 0 0   XYZ
    dof rx ry rz
    limits (-20.0 45.0)
           (-30.0 30.0)
           (-30.0 30.0)
  end
  begin
     id 15 
     name upperneck
     direction 0.0276574 0.952253 -0.304056   
     length 1.86999   
     axis 0 0 0   XYZ
    dof rx ry rz
    limits (-20.0 45.0)
           (-30.0 30.0)
           (-30.0 30.0)
  end
  begin
     id 16
     name head
     direction 0.00800083 0.994258 -0.106712  
     length 1.91492  
     axis 0 0 0   XYZ
    dof rx ry rz
    limits (-20.0 45.0)
           (-30.0 30.0)
           (-30.0 30.0)
  end
  begin
     id 17 
     name lclavicle
     direction 0.97203 0.225407 0.06595  
     length 3.34889  
     axis 0 0 0   XYZ
    dof ry rz
    limits (-20.0 10.0)
           (0.0 20.0)
  end
  begin
     id 18 
     name lhumerus
     direction 1 -4.48973e-011 2.20267e-027   
     length 4.85645   
     axis 180 -30 -90   XYZ
    dof rx ry rz
    limits (-60.0 90.0)
           (-90.0 90.0)
           (-90.0 90.0)
  end
  begin
     id 19
     name lradius
     direction 1 -4.4897e-011 4.60472e-027   
     length 2.79874   
     axis 180 -30 -90   XYZ
    dof rx
    limits (-10.0 170.0)
  end
  begin
     id 20
     name lwrist
     direction 1 -4.48952e-011 1.14928e-026   
     length 1.39937   
     axis -6.29373e-015 90 90   XYZ
    dof ry
    limits (-180.0 0.0)
 end
  begin
     id 21 
     name lhand
     direction 1 -4.48967e-011 2.29886e-026   
     length 0.573398   
     axis -1.46689e-014 90 90   XYZ
    dof rx rz
    limits (-90.0 90.0)
           (-45.0 45.0)
  end
  begin
     id 22 
     name lfingers
     direction 1 -4.48955e-011 4.59726e-026   
     length 0.462289   
     axis -2.93383e-014 90 90   XYZ
    dof rx
    limits (0.0 90.0)
  end
  begin
     id 23
     name lthumb
     direction 0.707107 -6.34866e-011 0.707107   
     length 0.663757   
     axis -90 45 5.69224e-014   XYZ
    dof rx rz
    limits (-45.0 45.0)
           (-45.0 45.0)
  end
  begin
     id 24 
     name rclavicle
     direction -0.981571 0.157346 0.108443   
     length 3.35257  
     axis 0 0 0   XYZ 
    dof ry rz
    limits (-10.0 20.0)
           (-20.0 0.0)
  end
  begin
     id 25 
     name rhumerus
     direction -1 -4.48967e-011 8.58308e-029  
     length 4.67018   
     axis 180 30 90   XYZ
    dof rx ry rz
    limits (-90.0 60.0)
           (-90.0 90.0)
           (-90.0 90.0)
  end
  begin
     id 26 
     name rradius
     direction -1 -4.48958e-011 4.52548e-027   
     length 2.65534   
     axis 180 30 90   XYZ
    dof rx
    limits (-10.0 170.0)
  end
  begin
     id 27 
     name rwrist
     direction -1 -4.48977e-011 1.14952e-026   
     length 1.32767   
     axis -6.29373e-015 -90 -90   XYZ
    dof ry
    limits (-180.0 0.0)
  end
  begin
     id 28
     name rhand
     direction -1 -4.48924e-011 2.29804e-026   
     length 0.594069   
     axis -1.46689e-014 -90 -90   XYZ
    dof rx rz
    limits (-90.0 90.0)
           (-45.0 45.0)
  end
  begin
     id 29
     name rfingers
     direction -1 -4.48998e-011 4.59888e-026   
     length 0.478954   
     axis -2.93383e-014 -90 -90   XYZ
    dof rx
    limits (0.0 90.0)
  end
  begin
     id 30
     name rthumb
     direction -0.707107 -6.34933e-011 0.707107   
     length 0.687685   
     axis -90 -45 -5.69224e-014   XYZ
    dof rx rz
    limits (-45.0 45.0)
           (-45.0 45.0)
  end
:hierarchy
  begin
    root lhipjoint rhipjoint lowerback
    lhipjoint lfemur
    lfemur ltibia
    ltibia lfoot
    lfoot ltoes
    rhipjoint rfemur
    rfemur rtibia
    rtibia rfoot
    rfoot rtoes
    lowerback upperback
    upperback thorax
    thorax lowerneck lclavicle rclavicle
    lowerneck upperneck
    upperneck head
    lclavicle lhumerus
    lhumerus lradius
    lradius lwrist
    lwrist lhand lthumb
    lhand lfingers
    rclavicle rhumerus
    rhumerus rradius
    rradius rwrist
    rwrist rhand rthumb
    rhand rfingers
  end

#!OML:ASF E:\pregnant2\Project 1\Capture day 1\Session 1\pregnant2.ASF
:FULLY-SPECIFIED
:DEGREES
164
root 9.4156 2.28651 12.8264 -150.29 7.55661 81.3758
lowerback -19.959 -1.02365 -4.95237
upperback -19.9345 -4.3544 -2.7849
thorax -11.3286 -3.4268 -0.451376
lowerneck -17.8406 0.58982 6.31245
upperneck 41.9609 3.51586 -5.09777
head 19.3577 2.67295 -2.55894
rclavicle -1.74931e-014 7.31528e-014
rhumerus 76.6929 -10.7743 23.3675
rradius 30.8097
rwrist 22.9117
rhand 2.56453 -2.56664
rfingers 7.12502
rthumb 28.0444 -30.4907
lclavicle -1.74931e-014 7.31528e-014
lhumerus -41.1841 -64.9958 122.809
lradius 87.4008
lwrist -2.76665
lhand -46.9077 47.3701
lfingers 7.12502
lthumb -19.6186 76.4002
rfemur -91.9885 8.10162 11.0547
rtibia 108.729
rfoot 14.792 -9.5482
rtoes -9.08458
lfemur -81.8836 -7.50188 -40.6647
ltibia 94.8662
lfoot 17.4366 -7.01426
ltoes -7.73795
165
root 9.41598 2.28763 12.826 -150.283 7.5404 81.4054
lowerback -19.9795 -1.01584 -4.90604
upperback -19.9148 -4.34056 -2.78473
thorax -11.2931 -3.42349 -0.478227
lowerneck -17.8545 0.589344 6.32726
upperneck 41.9122 3.49886 -5.10614
head 19.3293 2.66297 -2.56895
rclavicle -3.33958e-014 1.88448e-013
rhumerus 76.6688 -10.7919 23.3899
rradius 30.8062
rwrist 22.8886
rhand 2.55486 -2.63998
rfingers 7.12502
rthumb 28.0351 -30.5656
lclavicle -3.33958e-014 1.88448e-013
lhumerus -41.1322 -65.0173 122.754
lradius 87.4267
lwrist -2.76591
lhand -46.8923 47.3439
lfingers 7.12502
lthumb -19.6037 76.3756
rfemur -91.9765 8.10544 11.0983
rtibia 108.736
rfoot 14.816 -9.53005
rtoes -9.07431
lfemur -81.8931 -7.50386 -40.6346
ltibia 94.8718
lfoot 17.4732 -7.00643
ltoes -7.59509
166
root 9.41693 2.28696 12.8256 -150.295 7.55194 81.3859
lowerback -19.9675 -1.01761 -4.94442
upperback -19.9173 -4.34198 -2.78745
thorax -11.3021 -3.4205 -0.459098
lowerneck -17.8482 0.591601 6.29863
upperneck 41.8914 3.50125 -5.0891
head 19.3131 2.65986 -2.55454
rclavicle 5.08889e-014 -6.83819e-014
rhumerus 76.6585 -10.811 23.3732
rradius 30.8136
rwrist 22.8958
rhand 2.56572 -2.54556
rfingers 7.12502
rthumb 28.0455 -30.4695
lclavicle 5.08889e-014 -6.83819e-014
lhumerus -41.3583 -65.0626 122.969
lradius 87.4352
lwrist -3.05572
lhand -46.9821 48.4279
lfingers 7.12502
lthumb -19.6901 77.4507
rfemur -91.9652 8.10649 11.0629
rtibia 108.718
rfoot 14.8016 -9.54858
rtoes -9.05415
lfemur -81.8713 -7.49283 -40.6623
ltibia 94.8686
lfoot 17.4754 -7.00245
ltoes -7.63235
167
root 9.41606 2.28694 12.8254 -150.276 7.55712 81.3838
lowerback -19.9792 -1.03726 -4.96442
upperback -19.926 -4.3622 -2.75333
thorax -11.3029 -3.42393 -0.412946
lowerneck -17.8073 0.59625 6.28183
upperneck 41.855 3.51335 -5.09663
head 19.2792 2.65862 -2.55216
rclavicle 8.90555e-014 -1.74135e-013
rhumerus 76.6701 -10.8396 23.4961
rradius 30.8428
rwrist 22.7785
rhand 2.56843 -2.5976
rfingers 7.12502
rthumb 28.0481 -30.5211
lclavicle 8.90555e-014 -1.74135e-013
lhumerus -41.5284 -65.1056 123.147
lradius 87.4589
lwrist -3.45486
lhand -47.0189 50.2655
lfingers 7.12502
lthumb -19.7254 79.2847
rfemur -91.9859 8.10326 11.0708
rtibia 108.731
rfoot 14.8281 -9.49024
rtoes -9.23894
lfemur -81.8998 -7.49774 -40.6687
ltibia 94.8786
lfoot 17.4515 -6.96402
ltoes -7.69813
168
root 9.41616 2.28742 12.8253 -150.29 7.5599 81.3836
lowerback -19.955 -1.01364 -4.94249
upperback -19.9128 -4.33587 -2.7889
thorax -11.3028 -3.41693 -0.460682
lowerneck -17.8525 0.597591 6.2905
upperneck 41.8533 3.49356 -5.06937
head 19.2883 2.654 -2.54482
rclavicle -2.38542e-014 7.87187e-014
rhumerus 76.6436 -10.8249 23.367
rradius 30.8153
rwrist 22.912
rhand 2.55454 -2.58116
rfingers 7.12502
rthumb 28.0348 -30.5068
lclavicle -2.38542e-014 7.87187e-014
lhumerus -41.4803 -65.1236 123.09
lradius 87.439
lwrist -3.37373
lhand -47.0207 49.5165
lfingers 7.12502
lthumb -19.7272 78.5355
rfemur -91.9703 8.10377 11.0624
rtibia 108.725
rfoot 14.8004 -9.52919
rtoes -9.0491
lfemur -81.8732 -7.49395 -40.6775
ltibia 94.8846
lfoot 17.4104 -6.95888
ltoes -7.79319
169
root 9.41727 2.28756 12.8251 -150.288 7.55629 81.3946
lowerback -19.9549 -1.03726 -4.94311
upperback -19.9229 -4.36193 -2.74588
thorax -11.3111 -3.4235 -0.415324
lowerneck -17.8025 0.59936 6.26922
upperneck 41.819 3.50635 -5.08051
head 19.2533 2.65237 -2.54321
rclavicle -3.81667e-014 9.22361e-014
rhumerus 76.706 -10.8466 23.3989
rradius 30.8168
rwrist 22.8872
rhand 2.54909 -2.5888
rfingers 7.12502
rthumb 28.0296 -30.5153
lclavicle -3.81667e-014 9.22361e-014
lhumerus -41.3014 -64.9711 122.911
lradius 87.4507
lwrist -3.11083
lhand -46.9822 48.3316
lfingers 7.12502
lthumb -19.6902 77.3544
rfemur -91.9636 8.10683 11.0634
rtibia 108.713
rfoot 14.8119 -9.4912
rtoes -9.08223
lfemur -81.8773 -7.48671 -40.6686
ltibia 94.8894
lfoot 17.4493 -6.97613
ltoes -7.70899
170
root 9.41667 2.28738 12.8249 -150.281 7.56155 81.3941
lowerback -19.9536 -1.02572 -4.94102
upperback -19.9162 -4.34724 -2.7562
thorax -11.3042 -3.41759 -0.426614
lowerneck -17.8399 0.597124 6.24925
upperneck 41.8143 3.49754 -5.06384
head 19.259 2.64636 -2.53333
rclavicle 3.81667e-014 -1.00187e-013
rhumerus 76.6182 -10.8648 23.5953
rradius 30.8602
rwrist 22.6962
rhand 2.58145 -2.61316
rfingers 7.12502
rthumb 28.0605 -30.5346
lclavicle 3.81667e-014 -1.00187e-013
lhumerus -41.1456 -64.9371 122.776
lradius 87.4404
lwrist -2.88278
lhand -46.8528 47.1598
lfingers 7.12502
lthumb -19.5658 76.1952
rfemur -91.9734 8.10535 11.0678
rtibia 108.72
rfoot 14.8204 -9.48733
rtoes -9.03841
lfemur -81.8847 -7.48588 -40.6743
ltibia 94.9005
lfoot 17.4361 -6.9831
ltoes -7.77841
171
root 9.41713 2.287 12.8245 -150.282 7.57555 81.384
lowerback -19.9562 -1.04561 -4.9606
upperback -19.9207 -4.36731 -2.72812
thorax -11.3049 -3.42114 -0.38705
lowerneck -17.7953 0.625714 6.23459
upperneck 41.7708 3.55803 -5.10456
head 19.2259 2.65953 -2.53744
rclavicle -1.59028e-015 -9.54166e-015
rhumerus 76.6625 -10.8555 23.615
rradius 30.8718
rwrist 22.7048
rhand 2.47194 -2.80521
rfingers 7.12502
rthumb 27.9558 -30.7437
lclavicle -1.59028e-015 -9.54166e-015
lhumerus -41.0859 -64.8652 122.721
lradius 87.4486
lwrist -2.86136
lhand -46.8116 46.9715
lfingers 7.12502
lthumb -19.5262 76.011
rfemur -91.9717 8.11047 11.0534
rtibia 108.722
rfoot 14.8265 -9.47097
rtoes -8.96592
lfemur -81.8777 -7.47581 -40.696
ltibia 94.9018
lfoot 17.415 -6.95628
ltoes -7.7927
172
root 9.41789 2.28685 12.8237 -150.264 7.55749 81.4153
lowerback -19.988 -1.03859 -4.91345
upperback -19.9077 -4.35742 -2.7337
thorax -11.2731 -3.42201 -0.421247
lowerneck -17.8338 0.611884 6.18177
upperneck 41.7903 3.51671 -5.01179
head 19.2407 2.64642 -2.49157
rclavicle 8.26944e-014 -1.24042e-013
rhumerus 76.739 -10.8972 23.278
rradius 30.7904
rwrist 22.9915
rhand 2.63378 -2.52781
rfingers 7.12502
rthumb 28.1106 -30.4411
lclavicle 8.26944e-014 -1.24042e-013
lhumerus -41.1144 -64.9251 122.73
lradius 87.4655
lwrist -2.90333
lhand -46.8352 47.1749
lfingers 7.12502
lthumb -19.5489 76.2121
rfemur -91.9674 8.11849 11.0895
rtibia 108.71
rfoot 14.8103 -9.43052
rtoes -9.28479
lfemur -81.8984 -7.47472 -40.6619
ltibia 94.9094
lfoot 17.4218 -6.9544
ltoes -7.91419
173
root 9.41807 2.28654 12.8243 -150.271 7.56586 81.405
lowerback -19.9396 -1.05144 -4.94306
upperback -19.9257 -4.37553 -2.71385
thorax -11.3189 -3.4245 -0.380628
lowerneck -17.8221 0.612353 6.17119
upperneck 41.7767 3.51968 -5.01459
head 19.2288 2.64442 -2.4903
rclavicle -3.18055e-014 5.08889e-014
rhumerus 76.7118 -10.8812 23.4823
rradius 30.8279
rwrist 22.8275
rhand 2.51273 -2.61392
rfingers 7.12502
rthumb 27.9948 -30.5461
lclavicle -3.18055e-014 5.08889e-014
lhumerus -41.2243 -64.9416 122.848
lradius 87.4517
lwrist -3.11651
lhand -46.9388 48.0797
lfingers 7.12502
lthumb -19.6484 77.1068
rfemur -91.967 8.12013 11.0695
rtibia 108.708
rfoot 14.7966 -9.44725
rtoes -9.12304
lfemur -81.8915 -7.4697 -40.6741
ltibia 94.9088
lfoot 17.4555 -6.93495
ltoes -7.72203
174
root 9.41864 2.28634 12.8246 -150.276 7.59193 81.3956
lowerback -19.9289 -1.04659 -4.95064
upperback -19.929 -4.3717 -2.7197
thorax -11.3293 -3.42308 -0.381417
lowerneck -17.811 0.619741 6.15991
upperneck 41.7616 3.5301 -5.00905
head 19.2166 2.64617 -2.48322
rclavicle 3.18055e-015 -7.15625e-015
rhumerus 76.6826 -10.8738 23.5861
rradius 30.8617
rwrist 22.7566
rhand 2.47799 -2.74638
rfingers 7.12502
rthumb 27.9616 -30.684
lclavicle 3.18055e-015 -7.15625e-015
lhumerus -41.382 -65.0188 122.98
lradius 87.4772
lwrist -3.35704
lhand -46.9886 49.29
lfingers 7.12502
lthumb -19.6963 78.3121
rfemur -91.9871 8.1329 11.0368
rtibia 108.7
rfoot 14.8378 -9.38918
rtoes -9.11295
lfemur -81.8867 -7.44086 -40.7046
ltibia 94.9099
lfoot 17.4338 -6.9329
ltoes -7.83561
